dataset
version=1
nRows=16
nColumns=39
inDegrees=no
endheader
time	sternoclavicular_r2	sternoclavicular_r3	unrotscap_r3	unrotscap_r2	acromioclavicular_r2	acromioclavicular_r3	acromioclavicular_r1	unrothum_r1	unrothum_r3	unrothum_r2	elv_angle	shoulder_elv	shoulder1_r2	shoulder_rot	elbow_flexion	pro_sup	deviation	flexion	cmc_abduction	cmc_flexion	mp_flexion	ip_flexion	mcp2_flexion	mcp2_abduction	pm2_flexion	md2_flexion	mcp3_flexion	mcp3_abduction	pm3_flexion	md3_flexion	mcp4_flexion	mcp4_abduction	pm4_flexion	md4_flexion	mcp5_flexion	mcp5_abduction	pm5_flexion	md5_flexion
4.170000	-0.046712	-0.238161	0.074362	0.214109	0.186316	0.150512	-0.009285	-0.018548	0.194996	0.217188	0.250844	0.027437	0.146525	0.146525	1.551675	1.313901	0.000000	0.000000	0.000000	0.000000	0.000000	0.000000	0.000000	0.000000	0.000000	0.000000	0.000000	0.000000	0.000000	0.000000	0.000000	0.000000	0.000000	0.000000	0.000000	0.000000	0.000000	0.000000
4.175000	-0.046745	-0.238080	0.074265	0.214443	0.186675	0.150426	-0.009196	-0.017929	0.194819	0.217362	0.251103	0.027437	0.146525	0.146525	1.549503	1.313914	0.000000	0.000000	0.000000	0.000000	0.000000	0.000000	0.000000	0.000000	0.000000	0.000000	0.000000	0.000000	0.000000	0.000000	0.000000	0.000000	0.000000	0.000000	0.000000	0.000000	0.000000	0.000000
4.180000	-0.046779	-0.237998	0.074168	0.214774	0.187030	0.150346	-0.009104	-0.017296	0.194642	0.217527	0.251357	0.027437	0.146525	0.146525	1.547340	1.313929	0.000000	0.000000	0.000000	0.000000	0.000000	0.000000	0.000000	0.000000	0.000000	0.000000	0.000000	0.000000	0.000000	0.000000	0.000000	0.000000	0.000000	0.000000	0.000000	0.000000	0.000000	0.000000
4.185000	-0.046814	-0.237916	0.074069	0.215101	0.187380	0.150272	-0.009009	-0.016651	0.194467	0.217683	0.251605	0.027437	0.146525	0.146525	1.545185	1.313945	0.000000	0.000000	0.000000	0.000000	0.000000	0.000000	0.000000	0.000000	0.000000	0.000000	0.000000	0.000000	0.000000	0.000000	0.000000	0.000000	0.000000	0.000000	0.000000	0.000000	0.000000	0.000000
4.190000	-0.046850	-0.237834	0.073971	0.215425	0.187725	0.150204	-0.008912	-0.015994	0.194292	0.217831	0.251847	0.027437	0.146525	0.146525	1.543036	1.313964	0.000000	0.000000	0.000000	0.000000	0.000000	0.000000	0.000000	0.000000	0.000000	0.000000	0.000000	0.000000	0.000000	0.000000	0.000000	0.000000	0.000000	0.000000	0.000000	0.000000	0.000000	0.000000
4.195000	-0.046887	-0.237753	0.073872	0.215746	0.188066	0.150141	-0.008813	-0.015324	0.194117	0.217970	0.252085	0.027437	0.146525	0.146525	1.540893	1.313985	0.000000	0.000000	0.000000	0.000000	0.000000	0.000000	0.000000	0.000000	0.000000	0.000000	0.000000	0.000000	0.000000	0.000000	0.000000	0.000000	0.000000	0.000000	0.000000	0.000000	0.000000	0.000000
4.200000	-0.046924	-0.237672	0.073773	0.216063	0.188402	0.150084	-0.008712	-0.014643	0.193943	0.218102	0.252317	0.027437	0.146525	0.146525	1.538755	1.314008	0.000000	0.000000	0.000000	0.000000	0.000000	0.000000	0.000000	0.000000	0.000000	0.000000	0.000000	0.000000	0.000000	0.000000	0.000000	0.000000	0.000000	0.000000	0.000000	0.000000	0.000000	0.000000
4.205000	-0.046961	-0.237592	0.073675	0.216378	0.188735	0.150031	-0.008609	-0.013951	0.193768	0.218225	0.252544	0.027437	0.146525	0.146525	1.536621	1.314034	0.000000	0.000000	0.000000	0.000000	0.000000	0.000000	0.000000	0.000000	0.000000	0.000000	0.000000	0.000000	0.000000	0.000000	0.000000	0.000000	0.000000	0.000000	0.000000	0.000000	0.000000	0.000000
4.210000	-0.046999	-0.237513	0.073576	0.216688	0.189063	0.149982	-0.008506	-0.013249	0.193593	0.218341	0.252766	0.027437	0.146525	0.146525	1.534490	1.314062	0.000000	0.000000	0.000000	0.000000	0.000000	0.000000	0.000000	0.000000	0.000000	0.000000	0.000000	0.000000	0.000000	0.000000	0.000000	0.000000	0.000000	0.000000	0.000000	0.000000	0.000000	0.000000
4.215000	-0.047037	-0.237435	0.073479	0.216996	0.189386	0.149938	-0.008402	-0.012536	0.193418	0.218450	0.252983	0.027437	0.146525	0.146525	1.532363	1.314093	0.000000	0.000000	0.000000	0.000000	0.000000	0.000000	0.000000	0.000000	0.000000	0.000000	0.000000	0.000000	0.000000	0.000000	0.000000	0.000000	0.000000	0.000000	0.000000	0.000000	0.000000	0.000000
4.220000	-0.047076	-0.237358	0.073381	0.217300	0.189706	0.149898	-0.008296	-0.011814	0.193242	0.218552	0.253195	0.027437	0.146525	0.146525	1.530237	1.314126	0.000000	0.000000	0.000000	0.000000	0.000000	0.000000	0.000000	0.000000	0.000000	0.000000	0.000000	0.000000	0.000000	0.000000	0.000000	0.000000	0.000000	0.000000	0.000000	0.000000	0.000000	0.000000
4.225000	-0.047114	-0.237283	0.073285	0.217601	0.190022	0.149861	-0.008191	-0.011084	0.193065	0.218647	0.253403	0.027437	0.146525	0.146525	1.528113	1.314162	0.000000	0.000000	0.000000	0.000000	0.000000	0.000000	0.000000	0.000000	0.000000	0.000000	0.000000	0.000000	0.000000	0.000000	0.000000	0.000000	0.000000	0.000000	0.000000	0.000000	0.000000	0.000000
4.230000	-0.047153	-0.237209	0.073189	0.217899	0.190334	0.149827	-0.008086	-0.010345	0.192887	0.218736	0.253605	0.027437	0.146525	0.146525	1.525991	1.314201	0.000000	0.000000	0.000000	0.000000	0.000000	0.000000	0.000000	0.000000	0.000000	0.000000	0.000000	0.000000	0.000000	0.000000	0.000000	0.000000	0.000000	0.000000	0.000000	0.000000	0.000000	0.000000
4.235000	-0.047192	-0.237137	0.073094	0.218194	0.190643	0.149797	-0.007980	-0.009598	0.192708	0.218819	0.253803	0.027437	0.146525	0.146525	1.523869	1.314243	0.000000	0.000000	0.000000	0.000000	0.000000	0.000000	0.000000	0.000000	0.000000	0.000000	0.000000	0.000000	0.000000	0.000000	0.000000	0.000000	0.000000	0.000000	0.000000	0.000000	0.000000	0.000000
4.240000	-0.047230	-0.237067	0.073001	0.218486	0.190947	0.149769	-0.007875	-0.008845	0.192529	0.218896	0.253997	0.027437	0.146525	0.146525	1.521748	1.314287	0.000000	0.000000	0.000000	0.000000	0.000000	0.000000	0.000000	0.000000	0.000000	0.000000	0.000000	0.000000	0.000000	0.000000	0.000000	0.000000	0.000000	0.000000	0.000000	0.000000	0.000000	0.000000
4.245000	-0.047269	-0.236999	0.072908	0.218775	0.191248	0.149744	-0.007770	-0.008085	0.192348	0.218967	0.254186	0.027437	0.146525	0.146525	1.519628	1.314334	0.000000	0.000000	0.000000	0.000000	0.000000	0.000000	0.000000	0.000000	0.000000	0.000000	0.000000	0.000000	0.000000	0.000000	0.000000	0.000000	0.000000	0.000000	0.000000	0.000000	0.000000	0.000000
